# xmcd
#
# Track frame offsets: 
#        150
#        16485
#        33255
#        53932
#        73170
#        88042
#        108062
#        131650
#        146300
#        165417
#        183280
#        200447
#        217437
#        234780
#        259322
#        278052
#
# Disc length: 4008 seconds
#
# Revision: 1
# Processed by: cddbd v1.5.2PL0 Copyright (c) Steve Scherf et al.
# Submitted via: ExactAudioCopy v1.0b1
#
DISCID=e30fa610
DTITLE=Rodney Crowell - Essential
DYEAR=2004
DGENRE=Country
TTITLE0=I Ain't Living Long Like This
TTITLE1=Stars On The Water
TTITLE2=Shame On The Moon
TTITLE3=Oh King Richard
TTITLE4=I Couldn't Leave You If I Tried
TTITLE5=After All This Time
TTITLE6=The Last Waltz
TTITLE7=She's Crazy For Leaving
TTITLE8=Many A Long And Lonesome Highway
TTITLE9=What Kind Of Love
TTITLE10=Lovin' All Night
TTITLE11=Please Remember Me
TTITLE12=I Walk The Line (Revisited)
TTITLE13=Fate's Right Hand
TTITLE14=Still Learning How To Fly
TTITLE15='Til I Gain Control Again [Brand New 2004 Version]
EXTD=
EXTT0=
EXTT1=
EXTT2=
EXTT3=
EXTT4=
EXTT5=
EXTT6=
EXTT7=
EXTT8=
EXTT9=
EXTT10=
EXTT11=
EXTT12=
EXTT13=
EXTT14=
EXTT15=
PLAYORDER=
